<svg xmlns="http://www.w3.org/2000/svg" viewBox="0 0 14.13 15.11"><defs><style>.cls-1{fill:#b7c1b0;}.cls-2{fill:#314c1c;}</style></defs><g id="Layer_2" data-name="Layer 2"><g id="Logo"><path class="cls-1" d="M11.84,11.82l-.11,0c-1.51-.85-3.89-.58-5.64-.38-1.32.15-1.92.21-2.28-.05l-.11-.07,0-.12a6,6,0,0,1-.18-2.57,45,45,0,0,0,0-5.33C3.4,1.6,2.69.84,2.1.87S.88,1.65.87,3.07c0,.25.22,2,.26,6.17-.19,2.64,0,4.11.59,4.66.37.34,1,.42,2.09.25A39,39,0,0,1,11.08,14l.46,0c1.1,0,1.65-.4,1.72-.84S12.9,12.09,11.84,11.82Z"/><path class="cls-2" d="M12.11,11c-1.76-1-4.27-.66-6.12-.45a14.37,14.37,0,0,1-1.58.12,7,7,0,0,1,0-2,47.14,47.14,0,0,0,0-5.42C4.25,1,3.16,0,2.12,0h0C1.08,0,0,1,0,3.09v.06S.21,4.94.26,9.21c-.22,3,0,4.56.86,5.33a2.44,2.44,0,0,0,1.72.57,6.92,6.92,0,0,0,1.1-.1,38.1,38.1,0,0,1,7.11-.18l.46,0c1.67.06,2.49-.76,2.61-1.59S13.66,11.41,12.11,11Zm1.15,2.15c-.07.44-.62.86-1.72.84l-.46,0a39,39,0,0,0-7.27.19c-1.12.17-1.72.09-2.09-.25-.59-.55-.78-2-.59-4.66C1.09,5.11.9,3.32.87,3.07.88,1.65,1.49.89,2.1.87s1.3.73,1.39,2.39a45,45,0,0,1,0,5.33,6,6,0,0,0,.18,2.57l0,.12.11.07c.36.26,1,.2,2.28.05,1.75-.2,4.13-.47,5.64.38l.11,0C12.9,12.09,13.32,12.7,13.26,13.14Z"/><path class="cls-2" d="M12.47,7.65A2.39,2.39,0,0,0,11,6.79a1.78,1.78,0,0,1-1.51.87A1.89,1.89,0,0,1,7.62,5.89,1.89,1.89,0,0,1,9.53,4.12,1.78,1.78,0,0,1,11.06,5a1.71,1.71,0,0,0,1.15-.71,1.58,1.58,0,0,0-.06-1.67,2,2,0,0,0-1.87-.91C7.21,1.56,5.91,3,5.41,3.82A4.08,4.08,0,0,0,5.51,8a4.52,4.52,0,0,0,4,2.09,3.85,3.85,0,0,0,.48,0c1.77-.13,2.4-.71,2.62-1.17A1.25,1.25,0,0,0,12.47,7.65Z"/><path class="cls-1" d="M9.53,4.12A1.89,1.89,0,0,0,7.62,5.89,1.89,1.89,0,0,0,9.53,7.66,1.78,1.78,0,0,0,11,6.79a1.71,1.71,0,0,0,0-1.78A1.78,1.78,0,0,0,9.53,4.12Z"/></g></g></svg>