<?xml version="1.0" standalone="no"?>
<!DOCTYPE svg PUBLIC "-//W3C//DTD SVG 20010904//EN"
 "http://www.w3.org/TR/2001/REC-SVG-20010904/DTD/svg10.dtd">
<svg version="1.0" xmlns="http://www.w3.org/2000/svg"
 width="550.000000pt" height="200.000000pt" viewBox="0 0 550.000000 200.000000"
 preserveAspectRatio="xMidYMid meet">

<g transform="translate(0.000000,200.000000) scale(0.100000,-0.100000)"
fill="#000000" stroke="none">
<path d="M1655 1327 c-162 -43 -259 -168 -259 -338 0 -65 4 -84 32 -142 40
-80 102 -138 180 -167 260 -97 514 72 500 333 -7 136 -89 253 -206 297 -70 27
-180 34 -247 17z m201 -153 c21 -12 53 -40 69 -63 27 -38 30 -51 30 -115 0
-62 -4 -78 -27 -113 -35 -53 -85 -83 -151 -90 -66 -7 -117 9 -164 50 -46 40
-63 82 -63 151 0 66 12 101 48 140 63 67 172 84 258 40z"/>
<path d="M2767 1330 c-59 -15 -129 -55 -169 -97 -95 -98 -121 -255 -64 -380
46 -100 132 -168 244 -192 72 -15 105 -14 174 5 l58 17 0 84 0 84 -42 -25
c-85 -49 -177 -43 -245 17 -46 40 -63 82 -63 152 0 163 173 259 305 169 20
-13 38 -24 41 -24 3 0 4 37 2 82 l-3 83 -40 13 c-52 18 -150 24 -198 12z"/>
<path d="M4390 1325 c-137 -39 -222 -133 -249 -278 -28 -151 62 -312 206 -368
82 -32 214 -32 296 0 79 31 157 109 187 188 68 176 -18 379 -185 442 -78 29
-183 36 -255 16z m172 -135 c81 -23 138 -103 138 -195 0 -92 -57 -172 -138
-195 -146 -40 -272 50 -272 195 0 145 127 235 272 195z"/>
<path d="M690 995 l0 -335 180 0 180 0 0 65 0 65 -100 0 -100 0 0 270 0 270
-80 0 -80 0 0 -335z"/>
<path d="M3440 995 l0 -335 180 0 180 0 0 65 0 65 -105 0 -105 0 0 270 0 270
-75 0 -75 0 0 -335z"/>
</g>
</svg>
